<svg data-v-0dd9719b="" version="1.0" xmlns="http://www.w3.org/2000/svg" xmlns:xlink="http://www.w3.org/1999/xlink" width="100%" height="100%" viewBox="0 0 340.000000 250.000000" preserveAspectRatio="xMidYMid meet" color-interpolation-filters="sRGB" style="margin: auto;"> <rect data-v-0dd9719b="" x="0" y="0" width="100%" height="100%" fill="#fff" fill-opacity="1" class="background"></rect> <rect data-v-0dd9719b="" x="0" y="0" width="100%" height="100%" fill="url(#watermark)" fill-opacity="1" class="watermarklayer"></rect> <g data-v-0dd9719b="" fill="#dae000" class="icon-text-wrapper icon-svg-group iconsvg" transform="translate(49.670005798339844,99.65874862670898)"><g class="iconsvg-imagesvg" transform="translate(0,0.8786144256591797)"><g><rect fill="#dae000" fill-opacity="0" stroke-width="2" x="0" y="0" width="60" height="48.92527479696011" class="image-rect"></rect> <svg x="0" y="0" width="60" height="48.92527479696011" filtersec="colorsb223296596" class="image-svg-svg primary" style="overflow: visible;"><svg xmlns="http://www.w3.org/2000/svg" viewBox="0 0 42.79999923706055 34.900001525878906"><g style="isolation:isolate"><g><g><path d="M10.5 5.1l-5-.3V0L40 1.4v7.4l-2.7.2V6.6l-6.8-.4V3h-20zM37.3 29l-12.9 2v.7L40 33.5v-8.6l-2.7-.2z" fill="#dae000" style="mix-blend-mode:multiply"></path><path fill="#f4e881" d="M5.5 29.5V4.8L0 4.5v30.4l16.6-2.6v-1.5L5.5 29.5z"></path><path fill="#dae000" style="mix-blend-mode:multiply" d="M30.5 6.2v3.7h-6.1V31l12.9-2.1v-4.2l-2.4-.2V9.2l2.4-.2V6.6l-6.8-.4zM16.6 30.8V9.9h-6.1V5.1l-5-.3v24.7l11.1 1.3z"></path><path d="M37.3 6.6V9l-2.4.2v15.3l2.4.2V29l-12.9 2V9.9h6.1V6.2zM16.6 30.8V9.9h-6.1V5.1l-5-.3v24.7z" fill="#ffe100" opacity=".6"></path><path fill="#2ea7e0" style="mix-blend-mode:multiply" d="M42.8 8.5l-2.8.3v16.1l2.8.3V8.5z"></path><path fill="#dae000" style="mix-blend-mode:multiply" d="M37.3 9v15.7l2.7.2V8.8l-2.7.2z"></path><path fill="#2ea7e0" style="mix-blend-mode:multiply" d="M37.3 9v15.7l2.7.2V8.8l-2.7.2z"></path><path fill="#dae000" style="mix-blend-mode:multiply" d="M34.9 24.5l2.4.2V9l-2.4.2v15.3z"></path><path fill="#ffe100" opacity=".6" d="M34.9 24.5l2.4.2V9l-2.4.2v15.3z"></path><path fill="#57933c" d="M34.9 24.5l2.4.2V9l-2.4.2v15.3z"></path></g></g></g></svg></svg> <!----></g></g> <g transform="translate(67,0)"><g data-gra="path-name" fill-rule="" class="tp-name iconsvg-namesvg" transform="translate(0,0)"><g transform="scale(1)"><g><path d="M11.65-4.46L22.95-4.46 22.95-6.48 12.42-6.48 12.42-9.99 22.95-9.99 22.95-11.65 9.99-11.65 9.99-15.21 22.95-15.21 22.95-16.56 12.42-16.56 12.42-20.11 22.95-20.11 22.95-21.51 26.5-21.51 26.5-20.11 35.28-20.11 35.28-20.79 38.84-20.79 38.84-15.21 41.45-15.21 41.45-11.65 38.84-11.65 38.84-10.53Q38.84-8.82 37.64-7.65 36.45-6.48 34.78-6.48L34.78-6.48 26.5-6.48 26.5-4.46 35.28-4.46 35.28-5.04 38.84-5.04 38.84 2.38Q38.84 4.05 37.64 5.24 36.45 6.43 34.78 6.43L34.78 6.43 11.65 6.43 11.65-4.46ZM26.5-16.56L26.5-15.21 35.28-15.21 35.28-16.56 26.5-16.56ZM26.5-11.65L26.5-9.99 34.78-9.99Q35.28-9.99 35.28-10.53L35.28-10.53 35.28-11.65 26.5-11.65ZM35.28 2.38L35.28-0.94 15.21-0.94 15.21 2.88 34.78 2.88Q35.28 2.88 35.28 2.38L35.28 2.38ZM5.44-6.84L5.44-25.74 22.5-25.74 21.6-27.22 24.61-29.07 26.64-25.74 41.35-25.74 41.35-22.23 9-22.23 9-6.84Q9-4.41 8.5-2.05 8.01 0.32 7.4 2.21 6.79 4.09 6.28 5.29 5.76 6.48 5.71 6.57L5.71 6.57 4.14 5.8 2.52 5.08Q2.52 5.04 2.99 3.98 3.46 2.92 4 1.21 4.54-0.49 5-2.61 5.44-4.72 5.44-6.84L5.44-6.84ZM82.66 2.38L82.66-20.2 86.22-20.2 86.22 2.38Q86.22 4.09 85.03 5.26 83.84 6.43 82.17 6.43L82.17 6.43 49.23 6.43 49.23-20.2 52.74-20.2 52.74 2.88 65.92 2.88 65.92-27.54 69.48-27.54 69.48 2.88 82.17 2.88Q82.66 2.88 82.66 2.38L82.66 2.38ZM105.44-1.35L105.44 3.28Q105.44 4.68 104.47 5.67 103.5 6.66 102.15 6.66L102.15 6.66 99.63 6.66 99.63 3.1 101.88 3.1 101.88-12.29 105.44-12.29 105.44-6.79 106.38-5.67 110.2-9.9 112.81-7.51 108.67-2.97 112.55 1.53 109.84 3.82 105.44-1.35ZM100.89-9.81L100.89-5.44Q100.89-3.78 100.39-2.29 99.9-0.81 99.14 0.47 98.37 1.75 97.47 2.79 96.57 3.82 95.78 4.57 95 5.31 94.43 5.71 93.87 6.12 93.83 6.17L93.83 6.17 91.8 3.24Q91.8 3.24 92.68 2.56 93.56 1.89 94.61 0.7 95.67-0.49 96.53-2.07 97.38-3.65 97.38-5.44L97.38-5.44 97.38-6.25 93.42-6.25 93.42-9.81 100.89-9.81ZM124.38-0.81L124.38 3.28Q124.38 4.68 123.44 5.67 122.49 6.66 121.19 6.66L121.19 6.66 118.71 6.66 118.71 3.1 120.83 3.1 120.83-12.29 124.38-12.29 124.38-9.18Q124.47-8.82 124.78-7.94 125.1-7.06 125.69-5.89L125.69-5.89 129.69-10.08 132.25-7.65 127.44-2.61Q128.34-1.03 129.6 0.54 130.86 2.11 132.44 3.46L132.44 3.46 130.14 6.17Q128.3 4.59 126.85 2.79 125.41 0.99 124.38-0.81L124.38-0.81ZM119.97-9.81L119.97-4.91Q119.97-2.38 119.07-0.38 118.17 1.62 117.07 3.06 115.97 4.5 115.02 5.31 114.08 6.12 113.98 6.17L113.98 6.17 111.91 3.28Q111.91 3.28 112.63 2.68 113.36 2.07 114.21 0.99 115.06-0.09 115.76-1.6 116.46-3.1 116.46-4.91L116.46-4.91 116.46-6.25 113.53-6.25 113.53-9.81 119.97-9.81ZM93.92-11.38L93.24-14.85Q94.36-15.07 96.19-15.59 98.01-16.11 99.92-16.96 101.83-17.82 103.48-18.95 105.12-20.07 105.89-21.51L105.89-21.51 94.14-21.51 94.14-25.06 109.71-25.06 109.71-21.69 109.62-21.46Q108.31-16.65 100.75-13.5L100.75-13.5Q99.45-12.96 98.23-12.58 97.02-12.2 96.08-11.92 95.13-11.65 94.55-11.52 93.96-11.38 93.92-11.38L93.92-11.38ZM108.22-10.8L108.22-14.35 111.51-14.35Q112.05-14.35 112.05-14.85L112.05-14.85 112.05-28.35 115.56-28.35 115.56-25.29Q116.33-24.61 117.77-23.45 119.2-22.27 121.14-20.88L121.14-20.88 128.12-26.23 130.28-23.4 124.29-18.81Q126.18-17.64 128.2-16.63 130.23-15.62 132.34-14.98L132.34-14.98 131.31-11.61Q128.97-12.33 126.7-13.43 124.42-14.54 122.4-15.79 120.38-17.05 118.62-18.31 116.86-19.57 115.56-20.65L115.56-20.65 115.56-14.85Q115.56-13.14 114.39-11.97 113.22-10.8 111.51-10.8L111.51-10.8 108.22-10.8ZM174.42-13.59L174.42-10.08 159.34-10.08 159.34 2.43Q159.34 4.09 158.18 5.29 157 6.48 155.29 6.48L155.29 6.48 150.21 6.48 150.21 2.92 155.29 2.92Q155.84 2.92 155.84 2.43L155.84 2.43 155.84-10.08 139.91-10.08 141.75-26.37 164.61-26.37Q166.5-26.37 168.12-26.66 169.74-26.95 170.91-27.31 172.08-27.68 172.78-27.97 173.47-28.26 173.47-28.26L173.47-28.26 175.05-25.11Q174.96-25.06 174.17-24.7 173.38-24.34 171.99-23.94 170.59-23.54 168.7-23.2 166.81-22.86 164.61-22.86L164.61-22.86 144.9-22.86 143.87-13.59 155.84-13.59 155.84-18.99 159.34-18.99 159.34-13.59 174.42-13.59ZM168.25-8.46L176.18 4.41 173.16 6.25 165.24-6.61 168.25-8.46ZM140.49 5.85L138.06 3.28Q140.18 1.35 141.71-0.67 143.24-2.7 144.25-4.34 145.26-5.98 145.78-7.04 146.29-8.1 146.29-8.14L146.29-8.14 149.53-6.79Q149.49-6.66 148.95-5.49 148.41-4.32 147.28-2.52 146.16-0.72 144.47 1.48 142.78 3.69 140.49 5.85L140.49 5.85Z" transform="translate(-2.5199999809265137, 29.06999969482422)"></path></g> <!----> <!----> <!----> <!----> <!----> <!----> <!----></g></g> <g data-gra="path-slogan" fill-rule="" class="tp-slogan iconsvg-slogansvg" fill="#dae000" transform="translate(29.784996032714844,41.72999954223633)"><!----> <!----> <g transform="scale(1, 1)"><g transform="scale(1)"><path d="M3.09-7.59L0.19-7.59L0.19-8.58L7.13-8.58L7.13-7.59L4.22-7.59L4.22 0L3.09 0L3.09-7.59ZM13.83 0L12.98-2.48L9.52-2.48L8.63 0L7.45 0L10.69-8.58L12-8.58L15.09 0L13.83 0ZM11.25-7.31L9.89-3.52L12.56-3.52L11.30-7.31L11.25-7.31ZM17.53-8.58L21.84-1.64L21.84-8.58L22.97-8.58L22.97 0L21.66 0L17.30-6.94L17.25-6.94L17.25 0L16.13 0L16.13-8.58L17.53-8.58ZM31.17-3.61L28.55-3.61L28.55-4.59L32.30-4.59L32.30 0L31.55 0L31.27-1.08Q30.28 0.09 28.45 0.14L28.45 0.14Q26.72 0.14 25.78-0.75L25.78-0.75Q24.38-2.06 24.42-4.36L24.42-4.36Q24.75-8.63 28.50-8.81L28.50-8.81Q31.69-8.63 32.16-6L32.16-6L31.03-6Q30.56-7.78 28.45-7.83L28.45-7.83Q25.78-7.64 25.64-4.31L25.64-4.31Q25.64-0.75 28.50-0.75L28.50-0.75Q29.53-0.75 30.28-1.31L30.28-1.31Q31.22-2.06 31.17-3.61L31.17-3.61ZM40.36-6.09L40.36-6.09L39.28-6.09Q39.19-7.73 37.13-7.83L37.13-7.83Q35.20-7.78 35.20-6.33L35.20-6.33Q35.20-5.39 36.23-5.25L36.23-5.25L38.67-4.69Q40.59-4.22 40.59-2.34L40.59-2.34Q40.55 0.05 37.22 0.14L37.22 0.14Q35.39 0.14 34.64-0.61L34.64-0.61Q33.70-1.31 33.75-2.77L33.75-2.77L34.88-2.77Q34.92-0.80 37.22-0.75L37.22-0.75Q39.47-0.80 39.52-2.20L39.52-2.20Q39.70-3.38 37.64-3.75L37.64-3.75L35.86-4.13Q34.03-4.64 34.03-6.19L34.03-6.19Q34.17-8.72 37.03-8.81L37.03-8.81Q40.27-8.81 40.36-6.09ZM43.22-5.06L47.72-5.06L47.72-8.58L48.89-8.58L48.89 0L47.72 0L47.72-3.98L43.22-3.98L43.22 0L42.05 0L42.05-8.58L43.22-8.58L43.22-5.06ZM56.34 0L55.50-2.48L52.03-2.48L51.14 0L49.97 0L53.20-8.58L54.52-8.58L57.61 0L56.34 0ZM53.77-7.31L52.41-3.52L55.08-3.52L53.81-7.31L53.77-7.31ZM60.05-8.58L64.36-1.64L64.36-8.58L65.48-8.58L65.48 0L64.17 0L59.81-6.94L59.77-6.94L59.77 0L58.64 0L58.64-8.58L60.05-8.58ZM78.84-8.58L78.84 0L77.72 0L77.72-5.06Q77.72-5.77 77.72-7.22L77.72-7.22L75.28 0L74.11 0L71.72-7.22L71.67-7.22Q71.67-6.70 71.72-5.67L71.72-5.67Q71.72-5.16 71.72-5.06L71.72-5.06L71.72 0L70.55 0L70.55-8.58L72.23-8.58L74.72-1.31L77.16-8.58L78.84-8.58ZM80.72-8.58L81.89-8.58L81.89 0L80.72 0L80.72-8.58ZM89.53 0L88.69-2.48L85.22-2.48L84.33 0L83.16 0L86.39-8.58L87.70-8.58L90.80 0L89.53 0ZM86.95-7.31L85.59-3.52L88.27-3.52L87-7.31L86.95-7.31ZM98.63-4.27L98.63-4.27Q98.44-7.64 95.63-7.83L95.63-7.83Q92.77-7.69 92.63-4.27L92.63-4.27Q92.77-0.94 95.63-0.80L95.63-0.80Q98.44-0.98 98.63-4.27ZM99.80-4.27L99.80-4.27Q99.52 0 95.63 0.14L95.63 0.14Q91.69 0 91.41-4.27L91.41-4.27Q91.64-8.72 95.63-8.81L95.63-8.81Q99.52-8.67 99.80-4.27ZM101.16-8.58L102.33-8.58L102.33-1.03L106.69-1.03L106.69 0L101.16 0L101.16-8.58ZM109.13-1.03L114.28-1.03L114.28 0L107.95 0L107.95-8.58L114.19-8.58L114.19-7.59L109.13-7.59L109.13-4.92L113.81-4.92L113.81-3.89L109.13-3.89L109.13-1.03Z" transform="translate(-0.1875, 8.8125)"></path></g></g></g></g></g><defs v-gra="od"></defs></svg>